<svg xmlns="http://www.w3.org/2000/svg" viewBox="0 0 1200 675" role="img" aria-labelledby="t d">
  <title id="t">Các phần cần hoàn tất cho sản phẩm</title><desc id="d">Sản phẩm cần bản dịch, thương hiệu, ảnh, lợi ích và các quan hệ phân loại trước khi xuất bản.</desc><rect width="1200" height="675" fill="#f8fafc"/>
  <text x="600" y="83" text-anchor="middle" fill="#0f172a" font-family="Arial, sans-serif" font-size="35" font-weight="700">Hoàn tất Products</text>
  <rect x="430" y="230" width="340" height="180" rx="20" fill="#dbeafe" stroke="#2563eb" stroke-width="4"/><text x="600" y="300" text-anchor="middle" fill="#1e3a8a" font-family="Arial, sans-serif" font-size="32" font-weight="700">Sản phẩm</text><text x="600" y="345" text-anchor="middle" fill="#1e3a8a" font-family="Arial, sans-serif" font-size="20">Tạo mới: Lưu Draft</text><text x="600" y="380" text-anchor="middle" fill="#1e3a8a" font-family="Arial, sans-serif" font-size="20">Sửa: giữ Published</text>
  <g font-family="Arial, sans-serif" font-size="22" font-weight="700"><rect x="75" y="145" width="245" height="92" rx="14" fill="#dcfce7" stroke="#16a34a" stroke-width="3"/><text x="197" y="200" text-anchor="middle" fill="#14532d">Bản dịch và đường dẫn</text><rect x="75" y="440" width="245" height="92" rx="14" fill="#fef3c7" stroke="#d97706" stroke-width="3"/><text x="197" y="495" text-anchor="middle" fill="#78350f">Thương hiệu bắt buộc</text><rect x="880" y="145" width="245" height="92" rx="14" fill="#fce7f3" stroke="#db2777" stroke-width="3"/><text x="1002" y="200" text-anchor="middle" fill="#831843">Ảnh và mô tả ảnh</text><rect x="880" y="440" width="245" height="92" rx="14" fill="#ede9fe" stroke="#7c3aed" stroke-width="3"/><text x="1002" y="495" text-anchor="middle" fill="#4c1d95">Lợi ích và phân loại</text></g>
  <path d="M320 190L430 270M320 485L430 370M880 190L770 270M880 485L770 370" stroke="#64748b" stroke-width="5"/><text x="600" y="600" text-anchor="middle" fill="#0f172a" font-family="Arial, sans-serif" font-size="25" font-weight="700">Kiểm tra website bằng tiếng Anh và tiếng Việt sau khi Published</text>
</svg>
